<svg id="Отменить" xmlns="http://www.w3.org/2000/svg" width="48" height="48" viewBox="0 0 48 48">
  <rect width="48" height="48" fill="none"/>
  <path d="M117.923,160l-10.1,17.486a2,2,0,0,1-1.732,1H85.905a2,2,0,0,1-1.732-1L74.077,160a2,2,0,0,1,0-2l10.1-17.486a2,2,0,0,1,1.732-1H106.1a2,2,0,0,1,1.732,1L117.923,158A2,2,0,0,1,117.923,160Z" transform="translate(-72 -135)" fill="#e30b17"/>
  <line x1="12.975" y1="12.975" x2="35.025" y2="35.025" fill="none" stroke="#f6f5f4" stroke-linecap="round" stroke-linejoin="round" stroke-width="5"/>
  <line x1="35.025" y1="12.975" x2="12.975" y2="35.025" fill="none" stroke="#f6f5f4" stroke-linecap="round" stroke-linejoin="round" stroke-width="5"/>
</svg>
