<?xml version="1.0" encoding="UTF-8"?>
<svg id="Layer_2" data-name="Layer 2" xmlns="http://www.w3.org/2000/svg" xmlns:xlink="http://www.w3.org/1999/xlink" viewBox="0 0 48 48">
  <defs>
    <style>
      .cls-1 {
        stroke-width: 2px;
      }

      .cls-1, .cls-2 {
        fill: none;
      }

      .cls-1, .cls-3 {
        stroke: #e30b17;
      }

      .cls-1, .cls-3, .cls-4 {
        stroke-linecap: round;
        stroke-linejoin: round;
      }

      .cls-2 {
        stroke-width: 0px;
      }

      .cls-3 {
        fill: #eccad0;
      }

      .cls-3, .cls-4 {
        stroke-width: 1.5px;
      }

      .cls-4 {
        fill: #f6f5f4;
        stroke: #77767b;
      }

      .cls-5 {
        clip-path: url(#clippath);
      }
    </style>
    <clipPath id="clippath">
      <path class="cls-2" d="M9.476,9.476v29.049h29.049V9.476H9.476ZM25.635,37.082c-.996.278-2.027.437-3.066.437-1.311,0-2.611-.236-3.867-.691l1.161-1.161c1.623-1.623,1.834-4.127.641-5.985l.462-.082c.505.235,1.067.359,1.625.359,1.009,0,1.955-.39,2.664-1.099l.702-.701c1.233,2.853,1.131,6.149-.322,8.923ZM28.137,12.333c-1.623,1.623-1.833,4.127-.642,5.984l-.462.082c-.529-.246-1.068-.371-1.601-.371-1.016,0-1.971.395-2.688,1.111l-.702.701c-1.233-2.853-1.131-6.149.322-8.922.99-.276,2.015-.433,3.049-.433,1.331,0,2.636.235,3.884.686l-1.161,1.161Z"/>
    </clipPath>
  </defs>
  <g id="_Соединить" data-name="Соединить">
    <rect class="cls-2" width="48" height="48"/>
    <g>
      <path class="cls-3" d="M32.963,15.78l-.742-.742c-3.749-3.749-9.827-3.749-13.576,0l-3.606,3.606c-3.749,3.749-3.749,9.827,0,13.576l.742.742c3.749,3.749,9.827,3.749,13.576,0l3.606-3.606c3.749-3.749,3.749-9.827,0-13.576ZM26.493,30.099c-2.167,2.167-5.681,2.167-7.849,0l-.742-.742c-2.167-2.167-2.167-5.681,0-7.849l3.606-3.606c2.167-2.167,5.681-2.167,7.849,0l.742.742c2.167,2.167,2.167,5.681,0,7.849l-3.606,3.606Z"/>
      <path class="cls-4" d="M23.258,25.485l-.742-.742c-3.749-3.749-9.827-3.749-13.576,0l-3.606,3.606c-3.749,3.749-3.749,9.827,0,13.576l.742.742c3.749,3.749,9.827,3.749,13.576,0l3.606-3.606c3.749-3.749,3.749-9.827,0-13.576ZM16.788,39.804c-2.167,2.167-5.681,2.167-7.849,0l-.742-.742c-2.167-2.167-2.167-5.681,0-7.849l3.606-3.606c2.167-2.167,5.681-2.167,7.849,0l.742.742c2.167,2.167,2.167,5.681,0,7.849l-3.606,3.606Z"/>
      <path class="cls-4" d="M42.668,6.075l-.742-.742c-3.749-3.749-9.827-3.749-13.576,0l-3.606,3.606c-3.749,3.749-3.749,9.827,0,13.576l.742.742c3.749,3.749,9.827,3.749,13.576,0l3.606-3.606c3.749-3.749,3.749-9.827,0-13.576ZM36.198,20.394c-2.167,2.167-5.681,2.167-7.849,0l-.742-.742c-2.167-2.167-2.167-5.681,0-7.849l3.606-3.606c2.167-2.167,5.681-2.167,7.849,0l.742.742c2.167,2.167,2.167,5.681,0,7.849l-3.606,3.606Z"/>
      <g class="cls-5">
        <path class="cls-3" d="M32.963,15.78l-.742-.742c-3.749-3.749-9.827-3.749-13.576,0l-3.606,3.606c-3.749,3.749-3.749,9.827,0,13.576l.742.742c3.749,3.749,9.827,3.749,13.576,0l3.606-3.606c3.749-3.749,3.749-9.827,0-13.576ZM26.493,30.099c-2.167,2.167-5.681,2.167-7.849,0l-.742-.742c-2.167-2.167-2.167-5.681,0-7.849l3.606-3.606c2.167-2.167,5.681-2.167,7.849,0l.742.742c2.167,2.167,2.167,5.681,0,7.849l-3.606,3.606Z"/>
      </g>
    </g>
    <path class="cls-1" d="M12.713,5.447l3.308,5.437-3.308-5.437Z"/>
    <path class="cls-1" d="M5.395,12.799l5.452,3.282-5.452-3.282Z"/>
    <path class="cls-1" d="M41.8,36.441l-5.216-3.646,5.216,3.646Z"/>
    <path class="cls-1" d="M34.442,43.041l-3.06-5.58,3.06,5.58Z"/>
  </g>
</svg>