<?xml version="1.0" encoding="UTF-8"?>
<svg id="Layer_2" data-name="Layer 2" xmlns="http://www.w3.org/2000/svg" viewBox="0 0 48 48">
  <defs>
    <style>
      .cls-1 {
        fill: #f6f5f4;
      }

      .cls-1, .cls-2 {
        stroke-width: 0px;
      }

      .cls-3 {
        stroke-width: 2px;
      }

      .cls-3, .cls-2, .cls-4 {
        fill: none;
      }

      .cls-3, .cls-5 {
        stroke: #e30b17;
      }

      .cls-3, .cls-5, .cls-4 {
        stroke-linecap: round;
        stroke-linejoin: round;
      }

      .cls-5 {
        fill: #eccad0;
      }

      .cls-5, .cls-4 {
        stroke-width: 1.5px;
      }

      .cls-4 {
        stroke: #77767b;
      }
    </style>
  </defs>
  <g id="_Соединить_oldStyle" data-name="Соединить oldStyle">
    <rect class="cls-2" width="48" height="48"/>
    <line class="cls-3" x1="12.713" y1="5.447" x2="15.183" y2="9.507"/>
    <line class="cls-3" x1="10.847" y1="16.082" x2="6.546" y2="13.493"/>
    <line class="cls-3" x1="41.8" y1="36.441" x2="37.814" y2="33.655"/>
    <line class="cls-3" x1="31.382" y1="37.461" x2="33.594" y2="41.494"/>
    <path class="cls-5" d="M32.91,15.09c-4.22-4.22-11.053-4.22-15.274,0l-2.546,2.546c-4.22,4.22-4.22,11.053,0,15.274s11.053,4.22,15.274,0l2.546-2.546c4.22-4.22,4.22-11.053,0-15.274ZM27.818,30.364c-2.814,2.814-7.368,2.814-10.182,0s-2.814-7.368,0-10.182l2.546-2.546c2.814-2.814,7.368-2.814,10.182,0s2.814,7.368,0,10.182l-2.546,2.546Z"/>
    <path class="cls-1" d="M43.092,20.182l-2.546,2.546c-.549.549-1.14,1.027-1.771,1.431.453-1.567.416-3.193-.119-4.633l1.889-1.889c2.814-2.814,2.814-7.368,0-10.182s-7.368-2.814-10.182,0l-2.546,2.546c-2.814,2.814-2.814,7.368,0,10.182.52.52,1.103.945,1.72,1.273.136,1.216-.065,2.492-.594,3.683-1.338-.523-2.591-1.329-3.671-2.41-4.22-4.22-4.22-11.053,0-15.274l2.546-2.546c4.22-4.22,11.053-4.22,15.274,0s4.22,11.053,0,15.274Z"/>
    <path class="cls-4" d="M38.657,19.525l1.889-1.889c2.814-2.814,2.814-7.368,0-10.182s-7.368-2.814-10.182,0l-2.546,2.546c-2.814,2.814-2.814,7.368,0,10.182.52.52,1.103.945,1.72,1.273"/>
    <path class="cls-4" d="M28.944,25.137c-1.338-.523-2.591-1.329-3.671-2.41-4.22-4.22-4.22-11.053,0-15.274l2.546-2.546c4.22-4.22,11.053-4.22,15.274,0s4.22,11.053,0,15.274l-2.546,2.546c-.549.549-1.14,1.027-1.771,1.431"/>
    <path class="cls-1" d="M4.908,27.818l2.546-2.546c.549-.549,1.14-1.027,1.771-1.431-.453,1.567-.416,3.193.119,4.633l-1.889,1.889c-2.814,2.814-2.814,7.368,0,10.182s7.368,2.814,10.182,0l2.546-2.546c2.814-2.814,2.814-7.368,0-10.182-.52-.52-1.103-.945-1.72-1.273-.136-1.216.065-2.492.594-3.683,1.338.523,2.591,1.329,3.671,2.41,4.22,4.22,4.22,11.053,0,15.274l-2.546,2.546c-4.22,4.22-11.053,4.22-15.274,0s-4.22-11.053,0-15.274Z"/>
    <path class="cls-4" d="M9.343,28.475l-1.889,1.889c-2.814,2.814-2.814,7.368,0,10.182s7.368,2.814,10.182,0l2.546-2.546c2.814-2.814,2.814-7.368,0-10.182-.52-.52-1.103-.945-1.72-1.273"/>
    <path class="cls-4" d="M19.056,22.863c1.338.523,2.591,1.329,3.671,2.41,4.22,4.22,4.22,11.053,0,15.274l-2.546,2.546c-4.22,4.22-11.053,4.22-15.274,0s-4.22-11.053,0-15.274l2.546-2.546c.549-.549,1.14-1.027,1.771-1.431"/>
  </g>
</svg>