<?xml version="1.0" encoding="UTF-8"?>
<svg id="Layer_2" data-name="Layer 2" xmlns="http://www.w3.org/2000/svg" viewBox="0 0 48 48">
  <defs>
    <style>
      .cls-1 {
        stroke: #e30b17;
      }

      .cls-1, .cls-2 {
        fill: none;
      }

      .cls-1, .cls-3 {
        stroke-linecap: round;
        stroke-linejoin: round;
        stroke-width: 1.5px;
      }

      .cls-2, .cls-4 {
        stroke-width: 0px;
      }

      .cls-3 {
        fill: #f6f5f4;
        stroke: #77767b;
      }

      .cls-4 {
        fill: #eccad0;
      }
    </style>
  </defs>
  <g id="_Отсоединить" data-name="Отсоединить">
    <path class="cls-4" d="M17.56,40.119c-2.834-.551-5.434-2.239-7.084-4.875-.467-.746-.829-1.534-1.095-2.335l3.146-2.192c.149.898.481,1.787,1.001,2.618,1.262,2.018,3.356,3.197,5.568,3.358l-1.537,3.427Z"/>
    <path class="cls-4" d="M30.827,38.583l-.801.548c-2.353,1.609-5.125,2.16-7.734,1.764l1.396-3.486c1.485.063,2.986-.346,4.307-1.249l.124-.085,2.709,2.509Z"/>
    <path class="cls-1" d="M17.56,40.119c-2.834-.551-5.434-2.239-7.084-4.875-.467-.746-.829-1.534-1.095-2.335"/>
    <path class="cls-1" d="M12.528,30.717c.149.898.481,1.787,1.001,2.618,1.262,2.018,3.356,3.197,5.568,3.358"/>
    <path class="cls-1" d="M30.827,38.583l-.801.548c-2.353,1.609-5.125,2.16-7.734,1.764"/>
    <path class="cls-1" d="M23.688,37.408c1.485.063,2.986-.346,4.307-1.249l.124-.085"/>
    <path class="cls-4" d="M26.689,9.504c-2.509-.039-4.937,1.255-6.27,3.519l-2.892-2.165c1.745-2.742,4.59-4.454,7.655-4.867l1.507,3.512Z"/>
    <path class="cls-1" d="M26.689,9.504c-2.509-.039-4.937,1.255-6.27,3.519"/>
    <path class="cls-1" d="M17.527,10.858c1.745-2.742,4.59-4.454,7.655-4.867"/>
    <rect class="cls-2" width="48" height="48"/>
    <path class="cls-4" d="M33.431,19.791c.04-1.356-.314-2.738-1.085-3.977-.587-.942-1.348-1.693-2.227-2.253l.582-3.778c1.877.858,3.534,2.253,4.702,4.129.729,1.172,1.206,2.43,1.438,3.711l-3.409,2.169Z"/>
    <path class="cls-3" d="M43.092,4.908c-4.22-4.22-11.053-4.22-15.274,0l-2.546,2.546c-4.22,4.22-4.22,11.053,0,15.274,4.22,4.22,11.053,4.22,15.274,0l2.546-2.546c4.22-4.22,4.22-11.053,0-15.274ZM38.001,20.182c-2.814,2.814-7.368,2.814-10.182,0s-2.814-7.368,0-10.182l2.546-2.546c2.814-2.814,7.368-2.814,10.182,0,2.814,2.814,2.814,7.368,0,10.182l-2.546,2.546Z"/>
    <path class="cls-3" d="M22.727,25.273c-4.22-4.22-11.053-4.22-15.274,0l-2.546,2.546c-4.22,4.22-4.22,11.053,0,15.274s11.053,4.22,15.274,0l2.546-2.546c4.22-4.22,4.22-11.053,0-15.274ZM17.636,40.546c-2.814,2.814-7.368,2.814-10.182,0s-2.814-7.368,0-10.182l2.546-2.546c2.814-2.814,7.368-2.814,10.182,0s2.814,7.368,0,10.182l-2.546,2.546Z"/>
    <path class="cls-4" d="M10.644,17.85l-3.326-1.654c.926-1.19,2.114-2.201,3.543-2.943l3.195-1.658c.373-.193.755-.369,1.146-.505l1.041,3.46c-.178.07-.36.153-.529.241l-3.195,1.658c-.719.373-1.351.848-1.875,1.401Z"/>
    <path class="cls-4" d="M9.96,30.016c-2.687-1.971-4.275-5.065-4.381-8.33l3.613-.861c-.153,2.072.617,4.118,2.073,5.585l-1.305,3.606Z"/>
    <path class="cls-4" d="M37.033,34.969l-1.712,1.996-3.266-1.722,2.246-2.618c.619-.721,1.074-1.529,1.357-2.38l3.058,2.057c-.417.947-.979,1.848-1.682,2.668Z"/>
    <path class="cls-4" d="M41.27,29.201l-3.147-1.917c.411-1.418.37-2.923-.098-4.305l2.458-3.206c1.692,2.835,1.997,6.324.787,9.428Z"/>
    <path class="cls-1" d="M30.7,9.783c1.877.858,3.534,2.253,4.702,4.129.729,1.172,1.206,2.43,1.438,3.711"/>
    <path class="cls-1" d="M33.431,19.791c.04-1.356-.314-2.738-1.085-3.977-.587-.942-1.348-1.693-2.227-2.253"/>
    <path class="cls-1" d="M16.244,14.549c-.178.07-.36.153-.529.241l-3.195,1.658c-.719.373-1.351.848-1.875,1.401"/>
    <path class="cls-1" d="M7.319,16.196c.926-1.19,2.114-2.201,3.543-2.943l3.195-1.658c.373-.193.755-.369,1.146-.505"/>
    <path class="cls-1" d="M9.96,30.016c-2.687-1.971-4.275-5.065-4.381-8.33"/>
    <path class="cls-1" d="M9.192,20.825c-.153,2.072.617,4.118,2.073,5.585"/>
    <path class="cls-1" d="M38.715,32.301c-.417.947-.979,1.848-1.682,2.668l-1.712,1.996"/>
    <path class="cls-1" d="M32.054,35.243l2.246-2.618c.619-.721,1.074-1.529,1.357-2.38"/>
    <path class="cls-1" d="M40.483,19.773c1.692,2.835,1.997,6.324.787,9.428"/>
    <path class="cls-1" d="M38.123,27.285c.411-1.418.37-2.923-.098-4.305"/>
  </g>
</svg>