<svg xmlns="http://www.w3.org/2000/svg" viewBox="0 0 603 135">
  <g id="Подложка">
    <rect width="603" height="135" fill="none"/>
  </g>
  <g id="Схема">
    <path d="M598.059,152.139a2.006,2.006,0,0,1-2,2H561.247a2.006,2.006,0,0,1-2-2V130.264a2.006,2.006,0,0,1,2-2h34.812a2.006,2.006,0,0,1,2,2v21.875Z" transform="translate(-9.914 -99)" fill="none" stroke="#706f6f" stroke-linecap="round" stroke-linejoin="round" stroke-dasharray="4.997 3.997"/>
    <g>
      <line x1="539.086" y1="67.5" x2="548.477" y2="56.187" fill="none" stroke="#1d1d1b" stroke-linecap="round" stroke-linejoin="round" stroke-width="1.25"/>
      <polygon points="550.91 59.794 552.315 51.563 544.484 54.46 550.91 59.794" fill="#1d1d1b"/>
    </g>
    <path d="M481.5,166.5c0,3.112-1.263,5.625-2.812,5.625h-90c-1.55,0-2.813-2.513-2.813-5.625s1.263-5.625,2.813-5.625h90C480.237,160.875,481.5,163.388,481.5,166.5Z" transform="translate(-9.914 -99)" fill="#fff" stroke="#1d1d1b" stroke-linecap="round" stroke-linejoin="round" stroke-width="1.25"/>
    <ellipse cx="378.774" cy="67.5" rx="2.813" ry="5.625" fill="#fff" stroke="#1d1d1b" stroke-linecap="round" stroke-linejoin="round" stroke-width="1.25"/>
    <line x1="280.649" y1="67.5" x2="378.774" y2="67.5" fill="none" stroke="#1d1d1b" stroke-linecap="round" stroke-linejoin="round" stroke-width="1.25"/>
    <path d="M76.5,209.5a2.006,2.006,0,0,1-2,2h-41a2.006,2.006,0,0,1-2-2v-86a2.006,2.006,0,0,1,2-2h41a2.006,2.006,0,0,1,2,2v86Z" transform="translate(-9.914 -99)" fill="none" stroke="#706f6f" stroke-linecap="round" stroke-linejoin="round" stroke-dasharray="4.936 3.949"/>
    <line x1="32.836" y1="42.188" x2="55.336" y2="42.188" fill="none" stroke="#1d1d1b" stroke-linecap="round" stroke-linejoin="round" stroke-width="2"/>
    <line x1="32.836" y1="47.813" x2="55.336" y2="47.813" fill="none" stroke="#1d1d1b" stroke-linecap="round" stroke-linejoin="round" stroke-width="2"/>
    <line x1="44.086" y1="92.813" x2="44.086" y2="123.75" fill="none" stroke="#1d1d1b" stroke-linecap="round" stroke-linejoin="round" stroke-width="1.25"/>
    <line x1="44.086" y1="47.813" x2="44.086" y2="87.188" fill="none" stroke="#1d1d1b" stroke-linecap="round" stroke-linejoin="round" stroke-width="1.25"/>
    <line x1="44.086" y1="11.25" x2="44.086" y2="42.188" fill="none" stroke="#1d1d1b" stroke-linecap="round" stroke-linejoin="round" stroke-width="1.25"/>
    <line x1="32.836" y1="87.188" x2="55.336" y2="87.188" fill="none" stroke="#1d1d1b" stroke-linecap="round" stroke-linejoin="round" stroke-width="2"/>
    <line x1="32.836" y1="92.813" x2="55.336" y2="92.813" fill="none" stroke="#1d1d1b" stroke-linecap="round" stroke-linejoin="round" stroke-width="2"/>
    <g>
      <line x1="41.274" y1="129.375" x2="46.899" y2="129.375" fill="none" stroke="#1d1d1b" stroke-linecap="round" stroke-linejoin="round" stroke-width="1.25"/>
      <line x1="38.461" y1="126.563" x2="49.711" y2="126.563" fill="none" stroke="#1d1d1b" stroke-linecap="round" stroke-linejoin="round" stroke-width="1.25"/>
      <line x1="35.649" y1="123.75" x2="52.524" y2="123.75" fill="none" stroke="#1d1d1b" stroke-linecap="round" stroke-linejoin="round" stroke-width="1.25"/>
    </g>
    <line x1="111.586" y1="92.812" x2="111.586" y2="123.75" fill="none" stroke="#1d1d1b" stroke-linecap="round" stroke-linejoin="round" stroke-width="1.25"/>
    <line x1="111.586" y1="67.5" x2="111.586" y2="87.187" fill="none" stroke="#1d1d1b" stroke-linecap="round" stroke-linejoin="round"/>
    <g>
      <line x1="108.774" y1="129.375" x2="114.399" y2="129.375" fill="none" stroke="#1d1d1b" stroke-linecap="round" stroke-linejoin="round" stroke-width="1.25"/>
      <line x1="105.961" y1="126.563" x2="117.211" y2="126.563" fill="none" stroke="#1d1d1b" stroke-linecap="round" stroke-linejoin="round" stroke-width="1.25"/>
      <line x1="103.149" y1="123.75" x2="120.024" y2="123.75" fill="none" stroke="#1d1d1b" stroke-linecap="round" stroke-linejoin="round" stroke-width="1.25"/>
    </g>
    <circle cx="44.086" cy="11.25" r="2.812" fill="#fff" stroke="#1d1d1b" stroke-linecap="round" stroke-linejoin="round" stroke-width="1.25"/>
    <circle cx="44.086" cy="67.486" r="1.793" fill="#1d1d1b" stroke="#1d1d1b" stroke-linecap="round" stroke-linejoin="round"/>
    <circle cx="111.586" cy="67.5" r="1.793" fill="#1d1d1b" stroke="#1d1d1b" stroke-linecap="round" stroke-linejoin="round"/>
    <line x1="100.336" y1="87.187" x2="122.836" y2="87.187" fill="none" stroke="#1d1d1b" stroke-linecap="round" stroke-linejoin="round" stroke-width="2"/>
    <line x1="100.336" y1="92.812" x2="122.836" y2="92.812" fill="none" stroke="#1d1d1b" stroke-linecap="round" stroke-linejoin="round" stroke-width="2"/>
    <rect x="89.086" y="50.625" width="84.375" height="61.875" rx="2" fill="none" stroke="#706f6f" stroke-linecap="round" stroke-linejoin="round" stroke-dasharray="5 4"/>
    <path d="M290.562,166.5c0,3.112-1.262,5.625-2.812,5.625h-90c-1.55,0-2.812-2.513-2.812-5.625s1.262-5.625,2.812-5.625h90C289.3,160.875,290.562,163.388,290.562,166.5Z" transform="translate(-9.914 -99)" fill="#fff" stroke="#1d1d1b" stroke-linecap="round" stroke-linejoin="round" stroke-width="1.25"/>
    <ellipse cx="187.836" cy="67.5" rx="2.813" ry="5.625" fill="#fff" stroke="#1d1d1b" stroke-linecap="round" stroke-linejoin="round" stroke-width="1.25"/>
    <line x1="44.086" y1="67.5" x2="187.836" y2="67.5" fill="none" stroke="#1d1d1b" stroke-linecap="round" stroke-linejoin="round" stroke-width="1.25"/>
    <rect x="134.086" y="61.875" width="28.125" height="11.25" fill="#fff" stroke="#1d1d1b" stroke-linecap="round" stroke-linejoin="round" stroke-width="1.25"/>
    <line x1="347.836" y1="123.75" x2="347.836" y2="67.5" fill="none" stroke="#1d1d1b" stroke-linecap="round" stroke-linejoin="round" stroke-width="1.25"/>
    <rect x="302.836" y="61.875" width="28.125" height="11.25" fill="#fff" stroke="#1d1d1b" stroke-linecap="round" stroke-linejoin="round" stroke-width="1.25"/>
    <rect x="343.688" y="186.188" width="28.125" height="11.25" transform="translate(156.024 450.562) rotate(-90)" fill="#fff" stroke="#1d1d1b" stroke-linecap="round" stroke-linejoin="round" stroke-width="1.25"/>
    <g>
      <line x1="345.024" y1="129.375" x2="350.649" y2="129.375" fill="none" stroke="#1d1d1b" stroke-linecap="round" stroke-linejoin="round" stroke-width="1.25"/>
      <line x1="342.211" y1="126.562" x2="353.461" y2="126.562" fill="none" stroke="#1d1d1b" stroke-linecap="round" stroke-linejoin="round" stroke-width="1.25"/>
      <line x1="339.399" y1="123.75" x2="356.274" y2="123.75" fill="none" stroke="#1d1d1b" stroke-linecap="round" stroke-linejoin="round" stroke-width="1.25"/>
    </g>
    <circle cx="347.836" cy="67.5" r="1.793" fill="#1d1d1b" stroke="#1d1d1b" stroke-linecap="round" stroke-linejoin="round"/>
    <path d="M374.625,209.5a2.006,2.006,0,0,1-2,2H303.5a2.006,2.006,0,0,1-2-2V151.625a2.006,2.006,0,0,1,2-2h69.125a2.006,2.006,0,0,1,2,2V209.5Z" transform="translate(-9.914 -99)" fill="none" stroke="#706f6f" stroke-linecap="round" stroke-linejoin="round" stroke-dasharray="4.936 3.949"/>
    <path d="M605.25,209.5a2.006,2.006,0,0,1-2,2H494.75a2.006,2.006,0,0,1-2-2v-86a2.006,2.006,0,0,1,2-2h108.5a2.006,2.006,0,0,1,2,2v86Z" transform="translate(-9.914 -99)" fill="none" stroke="#706f6f" stroke-linecap="round" stroke-linejoin="round" stroke-dasharray="4.957 3.966"/>
    <line x1="471.899" y1="67.5" x2="539.086" y2="67.5" fill="none" stroke="#1d1d1b" stroke-linecap="round" stroke-linejoin="round" stroke-width="1.25"/>
    <line x1="539.086" y1="123.75" x2="539.086" y2="67.5" fill="none" stroke="#1d1d1b" stroke-linecap="round" stroke-linejoin="round" stroke-width="1.25"/>
    <rect x="494.086" y="61.875" width="28.125" height="11.25" fill="#fff" stroke="#1d1d1b" stroke-linecap="round" stroke-linejoin="round" stroke-width="1.25"/>
    <rect x="534.938" y="186.188" width="28.125" height="11.25" transform="translate(347.274 641.812) rotate(-90)" fill="#fff" stroke="#1d1d1b" stroke-linecap="round" stroke-linejoin="round" stroke-width="1.25"/>
    <g>
      <line x1="536.274" y1="129.375" x2="541.899" y2="129.375" fill="none" stroke="#1d1d1b" stroke-linecap="round" stroke-linejoin="round" stroke-width="1.25"/>
      <line x1="533.461" y1="126.562" x2="544.711" y2="126.562" fill="none" stroke="#1d1d1b" stroke-linecap="round" stroke-linejoin="round" stroke-width="1.25"/>
      <line x1="530.649" y1="123.75" x2="547.524" y2="123.75" fill="none" stroke="#1d1d1b" stroke-linecap="round" stroke-linejoin="round" stroke-width="1.25"/>
    </g>
    <circle cx="539.086" cy="67.5" r="2.812" fill="#fff" stroke="#1d1d1b" stroke-linecap="round" stroke-linejoin="round" stroke-width="1.25"/>
  </g>
  <g id="Надписи">
    <g>
      <path d="M222.321,150.549h-1.69v3.835h-1.664v-9.1h1.664v3.809h1.743l2.612-3.809h1.794l-3.107,4.407,3.224,4.693h-1.911Z" transform="translate(-9.914 -99)" fill="#575756"/>
      <path d="M232.884,148.1a2.839,2.839,0,0,1,.812,2.216v4.069h-1.533v-.845a1.892,1.892,0,0,1-.852.7,3.334,3.334,0,0,1-1.332.24,3.277,3.277,0,0,1-1.366-.266,2.116,2.116,0,0,1-.9-.741,1.884,1.884,0,0,1-.318-1.072,1.836,1.836,0,0,1,.695-1.5,3.452,3.452,0,0,1,2.19-.566h1.794v-.1a1.424,1.424,0,0,0-.435-1.118,1.885,1.885,0,0,0-1.294-.39,3.745,3.745,0,0,0-1.15.182,2.862,2.862,0,0,0-.956.507l-.636-1.183a3.948,3.948,0,0,1,1.313-.637,5.848,5.848,0,0,1,1.625-.221A3.384,3.384,0,0,1,232.884,148.1Zm-1.482,4.914a1.52,1.52,0,0,0,.669-.8v-.806H230.4q-1.406,0-1.405.923a.828.828,0,0,0,.351.7,1.6,1.6,0,0,0,.975.26A2.1,2.1,0,0,0,231.4,153.013Z" transform="translate(-9.914 -99)" fill="#575756"/>
      <path d="M241.21,148.2a3.011,3.011,0,0,1,1.177,1.176,3.484,3.484,0,0,1,.422,1.729,3.361,3.361,0,0,1-.468,1.775,3.184,3.184,0,0,1-1.313,1.2,4.191,4.191,0,0,1-1.924.429,3.42,3.42,0,0,1-2.8-1.2,5.278,5.278,0,0,1-.988-3.445,5.491,5.491,0,0,1,.9-3.315,4.361,4.361,0,0,1,2.743-1.612l3.224-.689.234,1.456-2.925.6a3.655,3.655,0,0,0-1.885.884,2.746,2.746,0,0,0-.728,1.755,3.219,3.219,0,0,1,1.131-.864,3.431,3.431,0,0,1,1.456-.306A3.5,3.5,0,0,1,241.21,148.2Zm-.617,4.42a2.052,2.052,0,0,0,.552-1.476,1.939,1.939,0,0,0-.552-1.443,1.975,1.975,0,0,0-1.45-.546,2.014,2.014,0,0,0-1.469.546,1.925,1.925,0,0,0-.559,1.443,2.017,2.017,0,0,0,.566,1.482,1.963,1.963,0,0,0,1.462.572A1.917,1.917,0,0,0,240.593,152.623Z" transform="translate(-9.914 -99)" fill="#575756"/>
      <path d="M250.856,151.433h-5.447a1.883,1.883,0,0,0,.748,1.216,2.448,2.448,0,0,0,1.5.448,2.53,2.53,0,0,0,1.885-.754l.871,1a2.923,2.923,0,0,1-1.183.845,4.693,4.693,0,0,1-3.627-.168,3.29,3.29,0,0,1-1.346-1.268,3.584,3.584,0,0,1-.474-1.84,3.626,3.626,0,0,1,.462-1.826,3.271,3.271,0,0,1,1.28-1.268,3.742,3.742,0,0,1,1.846-.455,3.647,3.647,0,0,1,1.814.449,3.174,3.174,0,0,1,1.248,1.261,3.835,3.835,0,0,1,.448,1.878C250.882,151.065,250.874,151.225,250.856,151.433Zm-4.8-2.307a1.941,1.941,0,0,0-.657,1.228h3.939a1.917,1.917,0,0,0-.637-1.222,2.113,2.113,0,0,0-2.645-.006Z" transform="translate(-9.914 -99)" fill="#575756"/>
      <path d="M258.864,147.442v6.942h-1.625V148.82h-2.6l-.065,1.378a15.62,15.62,0,0,1-.254,2.308,3.294,3.294,0,0,1-.636,1.469,1.516,1.516,0,0,1-1.229.539,3.586,3.586,0,0,1-.9-.143l.078-1.365a1.519,1.519,0,0,0,.312.039.817.817,0,0,0,.741-.4,2.332,2.332,0,0,0,.318-.949q.072-.552.124-1.58l.117-2.678Z" transform="translate(-9.914 -99)" fill="#575756"/>
      <path d="M266.566,150.328a2.088,2.088,0,0,1,.709,1.69,2.134,2.134,0,0,1-.78,1.768,3.381,3.381,0,0,1-2.2.611l-3.25-.013v-6.942h1.625v2.275l1.859.013A3.073,3.073,0,0,1,266.566,150.328Zm-1.319,2.574a1.111,1.111,0,0,0,.377-.91,1,1,0,0,0-.364-.858,1.9,1.9,0,0,0-1.105-.286l-1.482-.013v2.353l1.482.013A1.624,1.624,0,0,0,265.247,152.9Z" transform="translate(-9.914 -99)" fill="#575756"/>
    </g>
    <g>
      <path d="M411.518,150.809h-1.69v3.835h-1.664v-9.1h1.664v3.809h1.741l2.614-3.809h1.794l-3.107,4.407,3.224,4.693h-1.911Z" transform="translate(-9.914 -99)" fill="#575756"/>
      <path d="M422.08,148.358a2.84,2.84,0,0,1,.813,2.217v4.069h-1.535V153.8a1.89,1.89,0,0,1-.851.7,3.334,3.334,0,0,1-1.332.24,3.269,3.269,0,0,1-1.365-.266,2.113,2.113,0,0,1-.9-.741,1.877,1.877,0,0,1-.318-1.073,1.839,1.839,0,0,1,.695-1.5,3.456,3.456,0,0,1,2.191-.565h1.794v-.1a1.425,1.425,0,0,0-.436-1.118,1.884,1.884,0,0,0-1.293-.39,3.736,3.736,0,0,0-1.15.182,2.816,2.816,0,0,0-.956.507l-.637-1.183a3.971,3.971,0,0,1,1.312-.637,5.863,5.863,0,0,1,1.625-.221A3.389,3.389,0,0,1,422.08,148.358Zm-1.481,4.914a1.522,1.522,0,0,0,.669-.8v-.806h-1.677q-1.406,0-1.4.923a.828.828,0,0,0,.351.7,1.609,1.609,0,0,0,.975.26A2.1,2.1,0,0,0,420.6,153.272Z" transform="translate(-9.914 -99)" fill="#575756"/>
      <path d="M430.406,148.462a3.02,3.02,0,0,1,1.177,1.177,3.485,3.485,0,0,1,.423,1.729,3.352,3.352,0,0,1-.469,1.775,3.176,3.176,0,0,1-1.312,1.2,4.194,4.194,0,0,1-1.924.429,3.421,3.421,0,0,1-2.8-1.2,5.28,5.28,0,0,1-.988-3.445,5.491,5.491,0,0,1,.9-3.315,4.362,4.362,0,0,1,2.743-1.612l3.225-.689.233,1.456-2.925.6a3.656,3.656,0,0,0-1.884.884,2.746,2.746,0,0,0-.729,1.755,3.213,3.213,0,0,1,1.131-.864,3.434,3.434,0,0,1,1.456-.306A3.51,3.51,0,0,1,430.406,148.462Zm-.617,4.42a2.049,2.049,0,0,0,.553-1.475,1.94,1.94,0,0,0-.553-1.443,1.971,1.971,0,0,0-1.449-.546,2.013,2.013,0,0,0-1.47.546,1.928,1.928,0,0,0-.558,1.443,2.016,2.016,0,0,0,.565,1.482,1.964,1.964,0,0,0,1.463.572A1.91,1.91,0,0,0,429.789,152.882Z" transform="translate(-9.914 -99)" fill="#575756"/>
      <path d="M440.053,151.693h-5.448a1.889,1.889,0,0,0,.748,1.216,2.448,2.448,0,0,0,1.5.448,2.529,2.529,0,0,0,1.885-.754l.871,1a2.936,2.936,0,0,1-1.182.845,4.688,4.688,0,0,1-3.627-.169,3.275,3.275,0,0,1-1.346-1.267,3.585,3.585,0,0,1-.475-1.84,3.635,3.635,0,0,1,.461-1.826,3.276,3.276,0,0,1,1.282-1.268,3.738,3.738,0,0,1,1.845-.455,3.634,3.634,0,0,1,1.814.449,3.178,3.178,0,0,1,1.248,1.26,3.825,3.825,0,0,1,.448,1.879C440.078,151.325,440.069,151.485,440.053,151.693Zm-4.8-2.307a1.933,1.933,0,0,0-.656,1.228h3.938a1.914,1.914,0,0,0-.636-1.222,2.115,2.115,0,0,0-2.646-.006Z" transform="translate(-9.914 -99)" fill="#575756"/>
      <path d="M448.06,147.7v6.942h-1.625V149.08h-2.6l-.065,1.378a15.635,15.635,0,0,1-.253,2.308,3.274,3.274,0,0,1-.638,1.468,1.511,1.511,0,0,1-1.229.54,3.586,3.586,0,0,1-.9-.143l.078-1.365a1.519,1.519,0,0,0,.312.039.817.817,0,0,0,.741-.4,2.361,2.361,0,0,0,.318-.95q.072-.552.124-1.579l.116-2.678Z" transform="translate(-9.914 -99)" fill="#575756"/>
      <path d="M455.763,150.588a2.091,2.091,0,0,1,.709,1.69,2.134,2.134,0,0,1-.781,1.768,3.383,3.383,0,0,1-2.2.611l-3.25-.013V147.7h1.625v2.275l1.86.013A3.071,3.071,0,0,1,455.763,150.588Zm-1.32,2.574a1.114,1.114,0,0,0,.377-.91,1,1,0,0,0-.364-.858,1.892,1.892,0,0,0-1.1-.286l-1.483-.013v2.353l1.483.013A1.623,1.623,0,0,0,454.443,153.162Z" transform="translate(-9.914 -99)" fill="#575756"/>
    </g>
    <g>
      <path d="M18.6,110.706a2.4,2.4,0,0,1-.429,3.27,4.223,4.223,0,0,1-2.561.663H11.29v-9.1h4.069a4.065,4.065,0,0,1,2.392.611,2,2,0,0,1,.858,1.729,2.192,2.192,0,0,1-.344,1.235,2.164,2.164,0,0,1-1,.793A2.453,2.453,0,0,1,18.6,110.706Zm-5.642-1.28h2.262a2.045,2.045,0,0,0,1.248-.325,1.133,1.133,0,0,0,.429-.962,1.15,1.15,0,0,0-.429-.969,2.011,2.011,0,0,0-1.248-.331H12.954Zm4.394,2.561q0-1.326-1.794-1.326h-2.6v2.678h2.6Q17.348,113.339,17.348,111.987Z" transform="translate(-9.914 -99)" fill="#575756"/>
      <path d="M27.111,112.688a1.679,1.679,0,0,1-.7,1.444,3.542,3.542,0,0,1-2.08.507H20.792V107.7h3.394a3.612,3.612,0,0,1,1.989.468,1.5,1.5,0,0,1,.715,1.326,1.546,1.546,0,0,1-.28.923,1.85,1.85,0,0,1-.786.611A1.613,1.613,0,0,1,27.111,112.688ZM22.34,110.6h1.7q1.261,0,1.262-.871,0-.844-1.262-.845h-1.7Zm3.2,1.988a.79.79,0,0,0-.312-.682,1.667,1.667,0,0,0-.976-.227H22.34v1.781H24.2Q25.537,113.456,25.538,112.584Z" transform="translate(-9.914 -99)" fill="#575756"/>
      <path d="M30.036,114.275a3.316,3.316,0,0,1-1.32-1.268,3.795,3.795,0,0,1,0-3.673,3.324,3.324,0,0,1,1.32-1.26,4.213,4.213,0,0,1,3.809,0,3.327,3.327,0,0,1,1.319,1.26,3.788,3.788,0,0,1,0,3.673,3.32,3.32,0,0,1-1.319,1.268,4.222,4.222,0,0,1-3.809,0Zm3.38-1.534a2.41,2.41,0,0,0,0-3.146,1.986,1.986,0,0,0-1.482-.6,1.963,1.963,0,0,0-1.476.6,2.426,2.426,0,0,0,0,3.146,1.963,1.963,0,0,0,1.476.6A1.986,1.986,0,0,0,33.416,112.741Z" transform="translate(-9.914 -99)" fill="#575756"/>
      <path d="M44.569,113.261v2.925H43.048v-1.547H37.692v1.547H36.185v-2.925h.324q.663-.027.9-.852a10.791,10.791,0,0,0,.318-2.333l.091-2.379h5.72v5.564Zm-5.55-1.118a2.052,2.052,0,0,1-.52,1.118h3.418v-4.186H39.252l-.039,1.118A14.1,14.1,0,0,1,39.019,112.143Z" transform="translate(-9.914 -99)" fill="#575756"/>
    </g>
    <g>
      <path d="M127.193,141.029V144.4h-1.56v-1.937h-6.981V144.4H117.08l.012-3.367h.39q.86-.039,1.2-1.267a15.684,15.684,0,0,0,.422-3.516l.1-2.887h6.669v7.67Zm-6.89-1.683a3.343,3.343,0,0,1-.7,1.683h4.614V134.79h-3.562l-.065,1.611A20.287,20.287,0,0,1,120.3,139.346Z" transform="translate(-9.914 -99)" fill="#575756"/>
      <path d="M133.531,136.174a2.842,2.842,0,0,1,.812,2.217v4.068H132.81v-.845a1.892,1.892,0,0,1-.852.7,3.336,3.336,0,0,1-1.333.24,3.275,3.275,0,0,1-1.365-.266,2.116,2.116,0,0,1-.9-.741,1.882,1.882,0,0,1-.318-1.072,1.838,1.838,0,0,1,.7-1.5,3.452,3.452,0,0,1,2.19-.566h1.794v-.1a1.42,1.42,0,0,0-.435-1.117,1.88,1.88,0,0,0-1.294-.39,3.715,3.715,0,0,0-1.15.182,2.843,2.843,0,0,0-.956.506l-.636-1.183a3.927,3.927,0,0,1,1.313-.636,5.811,5.811,0,0,1,1.625-.222A3.388,3.388,0,0,1,133.531,136.174Zm-1.482,4.914a1.522,1.522,0,0,0,.669-.8v-.807h-1.676q-1.406,0-1.405.923a.828.828,0,0,0,.351.7,1.6,1.6,0,0,0,.975.261A2.1,2.1,0,0,0,132.049,141.088Z" transform="translate(-9.914 -99)" fill="#575756"/>
      <path d="M141.857,136.9h-2.431v5.563H137.8V136.9h-2.444v-1.378h6.5Z" transform="translate(-9.914 -99)" fill="#575756"/>
      <path d="M148.929,135.518v6.941H147.3v-2.69a4.783,4.783,0,0,1-2.093.481,3.051,3.051,0,0,1-2.054-.618,2.368,2.368,0,0,1-.715-1.892v-2.222h1.625v2.118a1.214,1.214,0,0,0,.39.989,1.683,1.683,0,0,0,1.105.325,4.068,4.068,0,0,0,1.742-.39v-3.042Z" transform="translate(-9.914 -99)" fill="#575756"/>
      <path d="M151.113,135.518h1.625v4.575l3.835-4.575h1.482v6.941H156.43v-4.576l-3.822,4.576h-1.5Z" transform="translate(-9.914 -99)" fill="#575756"/>
      <path d="M163.125,139.677h-1.261v2.782h-1.625v-6.941h1.625v2.808h1.3l2.054-2.808h1.742l-2.522,3.34,2.691,3.6h-1.911Z" transform="translate(-9.914 -99)" fill="#575756"/>
    </g>
    <g>
      <path d="M315.483,141.561v3.367h-1.56v-1.937h-6.981v1.937h-1.573l.013-3.367h.39q.86-.039,1.2-1.267a15.745,15.745,0,0,0,.422-3.517l.1-2.886h6.669v7.67Zm-6.89-1.683a3.351,3.351,0,0,1-.7,1.683h4.614v-6.24h-3.562l-.065,1.612A20.443,20.443,0,0,1,308.593,139.878Z" transform="translate(-9.914 -99)" fill="#575756"/>
      <path d="M323.232,140.04h-5.448a1.891,1.891,0,0,0,.748,1.216,2.45,2.45,0,0,0,1.5.448,2.527,2.527,0,0,0,1.885-.754l.871,1a2.929,2.929,0,0,1-1.182.845,4.69,4.69,0,0,1-3.628-.169,3.273,3.273,0,0,1-1.345-1.267,3.575,3.575,0,0,1-.475-1.84,3.626,3.626,0,0,1,.462-1.826,3.271,3.271,0,0,1,1.28-1.268,3.739,3.739,0,0,1,1.846-.455,3.647,3.647,0,0,1,1.814.449,3.174,3.174,0,0,1,1.248,1.261,3.836,3.836,0,0,1,.449,1.878C323.258,139.672,323.248,139.832,323.232,140.04Zm-4.8-2.307a1.945,1.945,0,0,0-.657,1.228h3.94a1.915,1.915,0,0,0-.637-1.222,2.115,2.115,0,0,0-2.646-.006Z" transform="translate(-9.914 -99)" fill="#575756"/>
      <path d="M331.239,136.049v6.942h-1.625v-5.564h-2.6l-.066,1.378a15.635,15.635,0,0,1-.253,2.308,3.294,3.294,0,0,1-.637,1.469,1.513,1.513,0,0,1-1.229.539,3.586,3.586,0,0,1-.9-.143l.078-1.365a1.511,1.511,0,0,0,.311.039.817.817,0,0,0,.741-.4,2.347,2.347,0,0,0,.319-.949q.072-.554.124-1.58l.116-2.678Z" transform="translate(-9.914 -99)" fill="#575756"/>
      <path d="M333.423,136.049h1.625v4.576l3.835-4.576h1.482v6.942H338.74v-4.576l-3.822,4.576h-1.5Z" transform="translate(-9.914 -99)" fill="#575756"/>
      <path d="M348.048,137.427h-2.431v5.564h-1.625v-5.564h-2.444v-1.378h6.5Z" transform="translate(-9.914 -99)" fill="#575756"/>
      <path d="M355.407,140.04H349.96a1.889,1.889,0,0,0,.747,1.216,2.449,2.449,0,0,0,1.5.448,2.529,2.529,0,0,0,1.885-.754l.871,1a2.939,2.939,0,0,1-1.183.845,4.688,4.688,0,0,1-3.627-.169,3.273,3.273,0,0,1-1.345-1.267,3.575,3.575,0,0,1-.475-1.84,3.625,3.625,0,0,1,.461-1.826,3.274,3.274,0,0,1,1.281-1.268,3.739,3.739,0,0,1,1.846-.455,3.641,3.641,0,0,1,1.813.449,3.161,3.161,0,0,1,1.248,1.261,3.825,3.825,0,0,1,.449,1.878C355.433,139.672,355.424,139.832,355.407,140.04Zm-4.8-2.307a1.932,1.932,0,0,0-.657,1.228h3.939a1.9,1.9,0,0,0-1.963-1.69A1.955,1.955,0,0,0,350.6,137.733Z" transform="translate(-9.914 -99)" fill="#575756"/>
      <path d="M363.414,136.049v6.942h-1.625v-5.564h-2.6l-.065,1.378a15.635,15.635,0,0,1-.253,2.308,3.283,3.283,0,0,1-.638,1.469,1.511,1.511,0,0,1-1.228.539,3.6,3.6,0,0,1-.9-.143l.079-1.365a1.511,1.511,0,0,0,.311.039.817.817,0,0,0,.741-.4,2.362,2.362,0,0,0,.319-.949q.071-.554.124-1.58l.116-2.678Z" transform="translate(-9.914 -99)" fill="#575756"/>
      <path d="M371.116,138.935a2.088,2.088,0,0,1,.709,1.69,2.136,2.136,0,0,1-.78,1.768,3.384,3.384,0,0,1-2.2.611l-3.25-.013v-6.942h1.625v2.275l1.859.013A3.073,3.073,0,0,1,371.116,138.935Zm-1.319,2.574a1.114,1.114,0,0,0,.377-.91,1,1,0,0,0-.364-.858,1.9,1.9,0,0,0-1.105-.286l-1.482-.013v2.353l1.482.013A1.624,1.624,0,0,0,369.8,141.509Z" transform="translate(-9.914 -99)" fill="#575756"/>
    </g>
    <g>
      <path d="M569.727,143.007h-4.9l-.966,2.268h-1.876l4.411-9.8h1.792l4.423,9.8h-1.9Zm-.6-1.428-1.848-4.284-1.834,4.284Z" transform="translate(-9.914 -99)" fill="#575756"/>
      <path d="M584.118,143.735v3.7h-1.68v-2.156h-8.316v-9.8h1.792v8.26h4.942v-8.26h1.806v8.26Z" transform="translate(-9.914 -99)" fill="#575756"/>
      <path d="M594.464,135.475v9.8h-1.792v-8.26H587.59v8.26H585.8v-9.8Z" transform="translate(-9.914 -99)" fill="#575756"/>
    </g>
    <g>
      <path d="M511.078,105.332a2.987,2.987,0,0,1,1.346,1.118,3.415,3.415,0,0,1,0,3.451,2.974,2.974,0,0,1-1.346,1.124,5.018,5.018,0,0,1-2.06.391h-2.054v2.626h-1.69v-9.1h3.744A5.018,5.018,0,0,1,511.078,105.332Zm-.461,4.186a1.854,1.854,0,0,0,0-2.679,2.6,2.6,0,0,0-1.677-.467h-1.976v3.613h1.976A2.6,2.6,0,0,0,510.617,109.518Z" transform="translate(-9.914 -99)" fill="#575756"/>
      <path d="M520.758,111.09h-5.447a1.882,1.882,0,0,0,.747,1.216,2.449,2.449,0,0,0,1.5.448,2.528,2.528,0,0,0,1.884-.754l.871,1a2.938,2.938,0,0,1-1.182.846,4.7,4.7,0,0,1-3.627-.169,3.284,3.284,0,0,1-1.346-1.268,3.582,3.582,0,0,1-.474-1.84,3.64,3.64,0,0,1,.46-1.826,3.281,3.281,0,0,1,1.282-1.267,3.728,3.728,0,0,1,1.845-.456,3.645,3.645,0,0,1,1.814.449,3.174,3.174,0,0,1,1.248,1.261,3.824,3.824,0,0,1,.448,1.878C520.783,110.722,520.774,110.882,520.758,111.09Zm-4.8-2.307a1.935,1.935,0,0,0-.656,1.229h3.938a1.914,1.914,0,0,0-.636-1.222,1.941,1.941,0,0,0-1.327-.469A1.961,1.961,0,0,0,515.954,108.783Z" transform="translate(-9.914 -99)" fill="#575756"/>
      <path d="M527.894,108.478h-3.706v5.564h-1.625V107.1h5.331Z" transform="translate(-9.914 -99)" fill="#575756"/>
      <path d="M529.076,107.1H530.7v4.575l3.835-4.575h1.483v6.942h-1.625v-4.577l-3.823,4.577h-1.5Z" transform="translate(-9.914 -99)" fill="#575756"/>
      <path d="M539.425,113.678a3.349,3.349,0,0,1-1.34-1.268,3.746,3.746,0,0,1,0-3.673,3.371,3.371,0,0,1,1.333-1.26,4.051,4.051,0,0,1,1.943-.456,3.739,3.739,0,0,1,1.8.417,2.692,2.692,0,0,1,1.163,1.195l-1.248.728a1.98,1.98,0,0,0-.747-.721,2.178,2.178,0,0,0-2.489.351,2.392,2.392,0,0,0-.007,3.159,2.189,2.189,0,0,0,2.5.351,1.975,1.975,0,0,0,.747-.722l1.248.728a2.806,2.806,0,0,1-1.177,1.2,3.662,3.662,0,0,1-1.787.422A4.067,4.067,0,0,1,539.425,113.678Z" transform="translate(-9.914 -99)" fill="#575756"/>
      <path d="M551.189,108.478h-2.43v5.564h-1.625v-5.564h-2.445V107.1h6.5Z" transform="translate(-9.914 -99)" fill="#575756"/>
      <path d="M558.034,107.463a3.2,3.2,0,0,1,1.254,1.248,4.039,4.039,0,0,1,0,3.725,3.178,3.178,0,0,1-1.254,1.254,3.682,3.682,0,0,1-1.813.442A2.8,2.8,0,0,1,554,113.2v3.367h-1.625V107.1h1.547v.909a2.515,2.515,0,0,1,1-.74,3.349,3.349,0,0,1,1.307-.248A3.693,3.693,0,0,1,558.034,107.463Zm-.52,4.681a2.429,2.429,0,0,0,0-3.146,1.964,1.964,0,0,0-1.476-.6,2.087,2.087,0,0,0-1.053.267,1.936,1.936,0,0,0-.741.76,2.542,2.542,0,0,0,0,2.288,1.932,1.932,0,0,0,.741.761,2.087,2.087,0,0,0,1.053.267A1.967,1.967,0,0,0,557.514,112.144Z" transform="translate(-9.914 -99)" fill="#575756"/>
      <path d="M566.2,107.756a2.838,2.838,0,0,1,.813,2.217v4.069h-1.534V113.2a1.892,1.892,0,0,1-.852.7,3.334,3.334,0,0,1-1.332.24,3.269,3.269,0,0,1-1.365-.266,2.113,2.113,0,0,1-.9-.741,1.882,1.882,0,0,1-.318-1.072,1.841,1.841,0,0,1,.695-1.5,3.455,3.455,0,0,1,2.191-.566h1.794v-.1a1.421,1.421,0,0,0-.436-1.117,1.877,1.877,0,0,0-1.293-.39,3.711,3.711,0,0,0-1.15.182,2.824,2.824,0,0,0-.956.506l-.637-1.183a3.946,3.946,0,0,1,1.313-.636,5.816,5.816,0,0,1,1.625-.222A3.388,3.388,0,0,1,566.2,107.756Zm-1.481,4.914a1.526,1.526,0,0,0,.669-.8v-.807h-1.677q-1.405,0-1.4.923a.828.828,0,0,0,.351.7,1.6,1.6,0,0,0,.975.261A2.109,2.109,0,0,0,564.717,112.67Z" transform="translate(-9.914 -99)" fill="#575756"/>
      <path d="M574.524,108.478h-2.43v5.564h-1.625v-5.564h-2.445V107.1h6.5Z" transform="translate(-9.914 -99)" fill="#575756"/>
      <path d="M576.6,113.678a3.326,3.326,0,0,1-1.319-1.268,3.795,3.795,0,0,1,0-3.673,3.334,3.334,0,0,1,1.319-1.26,4.205,4.205,0,0,1,3.809,0,3.321,3.321,0,0,1,1.319,1.26,3.788,3.788,0,0,1,0,3.673,3.313,3.313,0,0,1-1.319,1.268,4.222,4.222,0,0,1-3.809,0Zm3.38-1.534a2.407,2.407,0,0,0,0-3.146,1.982,1.982,0,0,0-1.482-.6,1.962,1.962,0,0,0-1.475.6,2.426,2.426,0,0,0,0,3.146,1.964,1.964,0,0,0,1.475.6A1.985,1.985,0,0,0,579.984,112.144Z" transform="translate(-9.914 -99)" fill="#575756"/>
      <path d="M589.469,107.463a3.2,3.2,0,0,1,1.254,1.248,4.039,4.039,0,0,1,0,3.725,3.178,3.178,0,0,1-1.254,1.254,3.683,3.683,0,0,1-1.814.442,2.8,2.8,0,0,1-2.223-.936v3.367h-1.625V107.1h1.547v.909a2.5,2.5,0,0,1,1-.74,3.344,3.344,0,0,1,1.306-.248A3.694,3.694,0,0,1,589.469,107.463Zm-.521,4.681a2.429,2.429,0,0,0,0-3.146,1.963,1.963,0,0,0-1.475-.6,2.084,2.084,0,0,0-1.053.267,1.922,1.922,0,0,0-.741.76,2.533,2.533,0,0,0,0,2.288,1.919,1.919,0,0,0,.741.761,2.084,2.084,0,0,0,1.053.267A1.966,1.966,0,0,0,588.948,112.144Z" transform="translate(-9.914 -99)" fill="#575756"/>
    </g>
    <g>
      <path d="M133.729,112.238l-1.487,1.408V115.9h-2V104.03h2V111.2l4.144-3.84h2.4l-3.568,3.584,3.9,4.96h-2.433Z" transform="translate(-9.914 -99)" fill="#541113"/>
      <path d="M143.842,104.7v11.2h-2.08v-9.456h-2.368V104.7Z" transform="translate(-9.914 -99)" fill="#541113"/>
    </g>
    <g>
      <path d="M333.346,113.513l-1.489,1.408v2.256h-2V105.305h2v7.168l4.145-3.84h2.4l-3.568,3.584,3.9,4.96h-2.432Z" transform="translate(-9.914 -99)" fill="#541113"/>
      <path d="M347.858,115.417v1.76H339.6v-1.392l4.448-4.224a4.9,4.9,0,0,0,1.016-1.256,2.394,2.394,0,0,0,.264-1.064,1.436,1.436,0,0,0-.528-1.2,2.472,2.472,0,0,0-1.552-.416,3.129,3.129,0,0,0-2.624,1.168l-1.456-1.12a4.3,4.3,0,0,1,1.768-1.368,6.12,6.12,0,0,1,2.488-.488,4.553,4.553,0,0,1,2.912.864,2.843,2.843,0,0,1,1.088,2.352,3.907,3.907,0,0,1-.384,1.712,6.7,6.7,0,0,1-1.472,1.824l-2.992,2.848Z" transform="translate(-9.914 -99)" fill="#541113"/>
    </g>
    <g>
      <path d="M511.956,143.237l-1.488,1.409V146.9h-2V135.029h2V142.2l4.144-3.84h2.4l-3.569,3.584,3.905,4.96h-2.433Z" transform="translate(-9.914 -99)" fill="#541113"/>
      <path d="M525.332,141.381a3.025,3.025,0,0,1,.816,2.161,3.306,3.306,0,0,1-.5,1.775,3.408,3.408,0,0,1-1.5,1.272,5.684,5.684,0,0,1-2.44.473,7.761,7.761,0,0,1-2.312-.345,5.889,5.889,0,0,1-1.9-.952l.9-1.616a4.543,4.543,0,0,0,1.48.809,5.573,5.573,0,0,0,1.8.295,2.908,2.908,0,0,0,1.735-.456,1.447,1.447,0,0,0,.632-1.24,1.431,1.431,0,0,0-.6-1.224,3.106,3.106,0,0,0-1.832-.439H520.6v-1.425l2.545-3.024h-5.089V135.7h7.633v1.392l-2.721,3.232A3.773,3.773,0,0,1,525.332,141.381Z" transform="translate(-9.914 -99)" fill="#541113"/>
    </g>
    <g>
      <path d="M125.811,107.75c-9.032-2.818-43.573-4.252-59.861-1.379" transform="translate(-9.914 -99)" fill="none" stroke="#541113" stroke-linecap="round" stroke-linejoin="round" stroke-width="1.25"/>
      <polygon points="57.801 3.446 57.181 7.167 59.428 10.196 50.614 8.75 57.801 3.446" fill="#541113"/>
    </g>
    <g>
      <path d="M149.244,114.639c18.022,5.018,37.613,18.092,40.833,40.308" transform="translate(-9.914 -99)" fill="none" stroke="#541113" stroke-linecap="round" stroke-linejoin="round" stroke-width="1.25"/>
      <polygon points="176.345 53.682 179.945 54.806 183.254 52.995 180.614 61.528 176.345 53.682" fill="#541113"/>
    </g>
    <g>
      <path d="M351.632,112.49c22.817,1.437,28.574,20.279,29.685,43.416" transform="translate(-9.914 -99)" fill="none" stroke="#541113" stroke-linecap="round" stroke-linejoin="round" stroke-width="1.25"/>
      <polygon points="367.757 54.431 371.29 55.752 374.694 54.126 371.586 62.5 367.757 54.431" fill="#541113"/>
    </g>
    <g>
      <path d="M325.863,112.49c-22.481.7-29.508,19.675-30.807,42.838" transform="translate(-9.914 -99)" fill="none" stroke="#541113" stroke-linecap="round" stroke-linejoin="round" stroke-width="1.25"/>
      <polygon points="281.885 53.526 285.278 55.175 288.82 53.878 284.936 61.921 281.885 53.526" fill="#541113"/>
    </g>
    <g>
      <path d="M529.358,142.674c7.494,0,11.207,5.343,14.575,14.5" transform="translate(-9.914 -99)" fill="none" stroke="#541113" stroke-linecap="round" stroke-linejoin="round" stroke-width="1.25"/>
      <polygon points="529.828 56.85 533.592 57.096 536.383 54.558 535.822 63.472 529.828 56.85" fill="#541113"/>
    </g>
    <g>
      <path d="M504,142.459c-7.359,0-13.457,4.821-17.43,14.709" transform="translate(-9.914 -99)" fill="none" stroke="#541113" stroke-linecap="round" stroke-linejoin="round" stroke-width="1.25"/>
      <polygon points="474.362 54.555 477.136 57.11 480.902 56.887 474.867 63.472 474.362 54.555" fill="#541113"/>
    </g>
  </g>
</svg>
