<svg id="Настройки" xmlns="http://www.w3.org/2000/svg" width="48" height="48" viewBox="0 0 48 48">
  <rect width="48" height="48" fill="none"/>
  <path d="M103.833,226.574l-4.292-.838-2.2-3.813,1.417-4.129a15.23,15.23,0,0,0-5.062-2.931l-2.869,3.3h-4.41l-2.869-3.3a15.221,15.221,0,0,0-5.062,2.931l1.417,4.129-2.2,3.813-4.292.838a15.364,15.364,0,0,0,0,5.85l4.292.839,2.2,3.813-1.417,4.129a15.221,15.221,0,0,0,5.062,2.931l2.869-3.3h4.41l2.869,3.3a15.23,15.23,0,0,0,5.062-2.931l-1.417-4.129,2.2-3.813,4.292-.839a15.364,15.364,0,0,0,0-5.85Zm-15.21,8.241a5.316,5.316,0,1,1,5.315-5.316A5.315,5.315,0,0,1,88.623,234.815Z" transform="translate(-72 -198)" fill="#eccad0" stroke="#e30b17" stroke-linecap="round" stroke-linejoin="round" stroke-width="2"/>
  <path d="M91.188,199.126l1.587,1.382,0,4.4-3.3,2.871a15.361,15.361,0,0,0,2.925,5.067l4.136-1.42,3.812,2.2.837,4.284a15.225,15.225,0,0,0,5.849.007l.836-4.289,3.82-2.2,4.132,1.42a15.223,15.223,0,0,0,2.919-5.069l-3.292-2.867,0-4.4,1.589-1.384m-9,0a5.371,5.371,0,0,1,.677.927,5.315,5.315,0,1,1-8.531-.927" transform="translate(-72 -198)" fill="#f6f5f4" stroke="#77767b" stroke-linecap="round" stroke-linejoin="round" stroke-width="2"/>
</svg>
